# xmcd
#
# Track frame offsets: 
#        150
#        37179
#        61751
#        85738
#        121491
#
# Disc length: 2038 seconds
#
# Revision: 0
# Processed by: cddbd v1.5.2PL0 Copyright (c) Steve Scherf et al.
# Submitted via: ExactAudioCopy v0.99pb3
#
DISCID=3b07f405
DTITLE=Chepper Land - Chepper Land
DYEAR=2008
DGENRE=Chanson
TTITLE0=Trace
TTITLE1=Pacha mama
TTITLE2=J'me balance
TTITLE3=Une humanite sans elle
TTITLE4=Faut payer
EXTD=
EXTT0=
EXTT1=
EXTT2=
EXTT3=
EXTT4=
PLAYORDER=
